<svg width="64" height="64" viewBox="0 0 64 64" fill="none" xmlns="http://www.w3.org/2000/svg">
<rect width="64" height="64" rx="12" fill="#171717"/>
<path d="M18.6421 49V14.0909H33.1989C35.8125 14.0909 38 14.4602 39.7614 15.1988C41.5341 15.9375 42.8636 16.9716 43.75 18.3011C44.6477 19.6307 45.0966 21.1704 45.0966 22.9204C45.0966 24.25 44.8182 25.4375 44.2614 26.4829C43.7046 27.517 42.9375 28.375 41.9602 29.0568C40.983 29.7386 39.8523 30.2159 38.5682 30.4886V30.8295C39.9773 30.8977 41.2784 31.2784 42.4716 31.9716C43.6762 32.6647 44.6421 33.6307 45.3693 34.8693C46.0966 36.0966 46.4602 37.5511 46.4602 39.2329C46.4602 41.1079 45.983 42.7841 45.0284 44.2613C44.0739 45.7272 42.6932 46.8863 40.8864 47.7386C39.0796 48.5795 36.8864 49 34.3068 49H18.6421ZM27.0796 42.1988H32.2955C34.125 42.1988 35.4716 41.8522 36.3352 41.1591C37.2102 40.4659 37.6477 39.5 37.6477 38.2613C37.6477 37.3636 37.4375 36.5909 37.0171 35.9432C36.5966 35.2841 36 34.7784 35.2273 34.4261C34.4546 34.0625 33.5284 33.8807 32.4489 33.8807H27.0796V42.1988ZM27.0796 28.4432H31.75C32.6705 28.4432 33.4887 28.2897 34.2046 27.9829C34.9205 27.6761 35.4773 27.2329 35.875 26.6534C36.2841 26.0738 36.4886 25.375 36.4886 24.5568C36.4886 23.3863 36.0739 22.4659 35.2443 21.7954C34.4148 21.125 33.2955 20.7897 31.8864 20.7897H27.0796V28.4432Z" fill="white"/>
</svg>
